<?xml version="1.0" encoding="UTF-8"?>
<svg id="_Шар_1" data-name="Шар_1" xmlns="http://www.w3.org/2000/svg" version="1.1" viewBox="0 0 740.71 157.97">
  <!-- Generator: Adobe Illustrator 30.2.1, SVG Export Plug-In . SVG Version: 2.1.1 Build 1)  -->
  <g>
    <polygon points="44.66 26.6 63.99 26.6 63.99 131.38 44.66 131.38 44.66 89.35 33.13 89.35 33.13 131.38 13.78 131.38 13.78 26.6 33.13 26.6 33.13 70 44.66 70 44.66 26.6"/>
    <path d="M115.73,127.2c-4.61,3.87-10.7,5.83-18.27,5.83s-13.66-1.96-18.26-5.83c-4.61-3.89-6.91-8.99-6.91-15.28V45.91c0-6.31,2.32-11.37,6.98-15.21,4.66-3.85,10.72-5.76,18.19-5.76s13.54,1.92,18.2,5.76c4.66,3.83,6.98,8.9,6.98,15.21v66.02c0,6.29-2.3,11.39-6.91,15.28M93.24,115.68c1.08.92,2.48,1.39,4.22,1.39s3.15-.46,4.23-1.39c1.06-.92,1.61-2.18,1.61-3.75V46.05c0-1.58-.55-2.83-1.61-3.75-1.08-.93-2.49-1.4-4.23-1.4s-3.14.47-4.22,1.4c-1.07.92-1.61,2.17-1.61,3.75v65.88c0,1.57.54,2.83,1.61,3.75Z"/>
    <path d="M174.57,127.56c-4.64,3.9-10.77,5.88-18.4,5.88s-13.77-1.97-18.41-5.88c-4.64-3.92-6.96-9.06-6.96-15.39V45.66c0-6.36,2.34-11.46,7.03-15.32,4.69-3.88,10.8-5.81,18.34-5.81s13.63,1.93,18.32,5.81c4.7,3.86,7.04,8.97,7.04,15.32v66.51c0,6.33-2.32,11.47-6.96,15.39M151.9,115.95c1.08.93,2.51,1.4,4.26,1.4s3.17-.47,4.26-1.4c1.08-.93,1.62-2.2,1.62-3.78V45.8c0-1.59-.54-2.85-1.62-3.78-1.09-.94-2.51-1.41-4.26-1.41s-3.17.47-4.26,1.41c-1.08.93-1.62,2.19-1.62,3.78v66.37c0,1.58.54,2.85,1.62,3.78Z"/>
    <path d="M300.82,127.57c-4.65,3.92-10.78,5.88-18.42,5.88s-13.76-1.96-18.39-5.88c-4.64-3.93-6.96-9.06-6.96-15.41V45.67c0-6.36,2.34-11.46,7.03-15.34,4.7-3.88,10.81-5.81,18.32-5.81s13.65,1.93,18.34,5.81c4.69,3.88,7.04,8.98,7.04,15.34v24.5h-19.49v-24.36c0-1.59-.54-2.85-1.62-3.78-1.09-.96-2.51-1.41-4.27-1.41s-3.16.45-4.24,1.41c-1.09.93-1.63,2.19-1.63,3.78v66.36c0,1.59.54,2.85,1.63,3.78,1.08.94,2.5,1.41,4.24,1.41s3.18-.47,4.27-1.41c1.08-.93,1.62-2.18,1.62-3.78v-22.44h19.49v22.44c0,6.35-2.32,11.47-6.96,15.41"/>
    <rect x="229.21" y="26.21" width="19.48" height="80.64"/>
    <polygon points="209.58 115.66 248.69 115.66 248.69 131.77 190.09 131.77 190.09 26.2 209.58 26.2 209.58 115.66"/>
    <polygon points="405.24 72.44 408.05 72.44 408.31 26.2 427.8 26.2 427.8 131.76 408.19 131.76 394.39 85.23 391.76 85.23 391.76 131.78 372.28 131.78 372.28 26.2 391.55 26.2 405.24 72.44"/>
    <path d="M354.18,26.21h-30.01l-13.15,105.55h19.64l2.16-27.44h12.61l2.16,27.44h19.58l-12.99-105.55ZM334.69,90.24l3.09-38.05h2.55s3.18,38.05,3.18,38.05h-8.82Z"/>
  </g>
  <rect x="453.64" y="5.33" width="7.09" height="147.31"/>
  <g>
    <path d="M498.33,53.69c-3.43,0-6.12-.92-8.08-2.76-1.96-1.84-2.94-4.41-2.94-7.71v-16.43h4.99v16.46c0,2,.52,3.52,1.56,4.55,1.04,1.04,2.53,1.55,4.48,1.55s3.44-.52,4.48-1.55c1.04-1.04,1.55-2.55,1.55-4.55v-16.46h5v16.43c0,3.36-.97,5.94-2.92,7.75-1.95,1.81-4.65,2.72-8.1,2.72Z"/>
    <path d="M530.71,33.67v-6.88h4.81v26.34h-5.55l-7.33-11.73c-2-3.13-3.57-5.77-4.7-7.92.1,2.76.15,7.02.15,12.77v6.88h-4.81v-26.34h5.55l7.36,11.73c2.2,3.55,3.75,6.19,4.66,7.92-.1-3.68-.15-7.93-.15-12.77Z"/>
    <path d="M544.84,53.13h-5v-26.34h5v26.34Z"/>
    <path d="M574.37,39.96c0,4.1-1.18,7.4-3.55,9.92l3.11,3.37-2.59,2.48-3.37-3.63c-1.97,1.08-4.22,1.63-6.73,1.63-3.95,0-7.13-1.26-9.55-3.77-2.42-2.54-3.63-5.87-3.63-9.99s1.21-7.45,3.63-9.99c2.42-2.52,5.6-3.77,9.55-3.77s7.13,1.26,9.55,3.77c2.39,2.49,3.59,5.82,3.59,9.99ZM561.24,49.32c1.26,0,2.42-.25,3.48-.74l-3.03-3.29,2.63-2.48,3.15,3.44c1.16-1.68,1.74-3.77,1.74-6.29,0-2.89-.72-5.17-2.15-6.85-1.43-1.68-3.37-2.52-5.81-2.52s-4.32.84-5.77,2.52c-1.46,1.68-2.18,3.96-2.18,6.85s.73,5.17,2.18,6.85c1.46,1.68,3.38,2.52,5.77,2.52Z"/>
    <path d="M588.25,53.69c-3.43,0-6.12-.92-8.08-2.76-1.96-1.84-2.94-4.41-2.94-7.71v-16.43h4.99v16.46c0,2,.52,3.52,1.56,4.55,1.04,1.04,2.53,1.55,4.48,1.55s3.44-.52,4.48-1.55,1.55-2.55,1.55-4.55v-16.46h5v16.43c0,3.36-.97,5.94-2.92,7.75-1.95,1.81-4.65,2.72-8.1,2.72Z"/>
    <path d="M622.62,26.79v4.48h-14.43v6.22h13.06v4.29h-13.06v6.88h14.36v4.48h-19.35v-26.34h19.43Z"/>
    <path d="M499.33,93.04c-3.8,0-6.87-1.25-9.21-3.74-2.37-2.49-3.55-5.83-3.55-10.03s1.17-7.57,3.52-10.06c2.32-2.47,5.4-3.7,9.25-3.7,3.08,0,5.71.83,7.88,2.48,2.17,1.65,3.53,4.05,4.07,7.18h-5.07c-.44-1.73-1.26-3.04-2.46-3.94-1.2-.9-2.67-1.35-4.42-1.35-2.34,0-4.19.83-5.53,2.5-1.34,1.67-2.02,3.97-2.02,6.9s.67,5.27,2,6.92c1.33,1.65,3.18,2.48,5.55,2.48,1.82,0,3.39-.54,4.7-1.63,1.31-1.09,2.1-2.59,2.37-4.51h5c-.32,3.36-1.63,5.95-3.92,7.77-2.27,1.83-4.98,2.74-8.14,2.74Z"/>
    <path d="M526.56,93.04c-3.95,0-7.13-1.26-9.55-3.77-2.42-2.54-3.63-5.87-3.63-9.99s1.21-7.45,3.63-9.99c2.42-2.52,5.6-3.77,9.55-3.77s7.13,1.26,9.55,3.77c2.39,2.49,3.59,5.82,3.59,9.99s-1.2,7.5-3.59,9.99c-2.42,2.52-5.6,3.77-9.55,3.77ZM518.61,79.27c0,2.89.73,5.17,2.18,6.85,1.46,1.68,3.38,2.52,5.77,2.52s4.35-.84,5.81-2.52c1.43-1.65,2.15-3.93,2.15-6.85s-.72-5.19-2.15-6.85c-1.46-1.68-3.39-2.52-5.81-2.52s-4.32.84-5.77,2.52c-1.46,1.68-2.18,3.96-2.18,6.85Z"/>
    <path d="M547.92,66.1v21.87h12.54v4.48h-17.54v-26.34h5Z"/>
    <path d="M568.19,66.1v21.87h12.54v4.48h-17.54v-26.34h5Z"/>
    <path d="M602.9,66.1v4.48h-14.43v6.22h13.06v4.29h-13.06v6.88h14.36v4.48h-19.35v-26.34h19.43Z"/>
    <path d="M617.4,93.04c-3.8,0-6.87-1.25-9.21-3.74-2.37-2.49-3.55-5.83-3.55-10.03s1.17-7.57,3.52-10.06c2.32-2.47,5.4-3.7,9.25-3.7,3.08,0,5.71.83,7.88,2.48,2.17,1.65,3.53,4.05,4.07,7.18h-5.07c-.44-1.73-1.26-3.04-2.46-3.94-1.2-.9-2.67-1.35-4.42-1.35-2.34,0-4.19.83-5.53,2.5-1.34,1.67-2.02,3.97-2.02,6.9s.67,5.27,2,6.92c1.33,1.65,3.18,2.48,5.55,2.48,1.82,0,3.39-.54,4.7-1.63,1.31-1.09,2.1-2.59,2.37-4.51h5c-.32,3.36-1.63,5.95-3.92,7.77-2.27,1.83-4.98,2.74-8.14,2.74Z"/>
    <path d="M629.09,66.1h21.9v4.48h-8.44v21.87h-5.03v-21.87h-8.44v-4.48Z"/>
    <path d="M658.51,92.45h-5v-26.34h5v26.34Z"/>
    <path d="M679.75,78.57c1.45.52,2.58,1.34,3.38,2.48.8,1.14,1.2,2.42,1.2,3.85,0,2.39-.78,4.25-2.35,5.57-1.57,1.32-3.84,1.98-6.83,1.98h-12.32v-26.34h11.92c2.76,0,4.87.63,6.33,1.89,1.46,1.26,2.18,2.9,2.18,4.92,0,2.59-1.17,4.48-3.51,5.66ZM674.38,70.21h-6.55v6.88h6.55c1.26,0,2.23-.31,2.9-.94.68-.63,1.02-1.5,1.02-2.61,0-1.04-.34-1.85-1.04-2.44-.69-.59-1.65-.89-2.89-.89ZM667.83,88.3h7.07c1.41,0,2.48-.31,3.22-.94.74-.63,1.11-1.52,1.11-2.68,0-2.44-1.44-3.66-4.33-3.66h-7.07v7.29Z"/>
    <path d="M692.22,66.1v21.87h12.54v4.48h-17.54v-26.34h5Z"/>
    <path d="M726.92,66.1v4.48h-14.43v6.22h13.06v4.29h-13.06v6.88h14.36v4.48h-19.35v-26.34h19.43Z"/>
    <path d="M487.68,105.42h10.06c4.22,0,7.47,1.17,9.77,3.51,2.29,2.37,3.44,5.59,3.44,9.66s-1.15,7.28-3.44,9.62c-2.29,2.37-5.55,3.55-9.77,3.55h-10.06v-26.34ZM492.67,127.47h5c2.59,0,4.59-.76,5.99-2.27,1.41-1.52,2.11-3.72,2.11-6.6s-.7-5.09-2.11-6.6c-1.41-1.52-3.4-2.28-5.99-2.28h-5v17.76Z"/>
    <path d="M519.17,131.76h-5v-26.34h5v26.34Z"/>
    <path d="M542.11,105.42v4.48h-13.62v6.22h12.4v4.29h-12.4v11.36h-5v-26.34h18.61Z"/>
    <path d="M563.42,105.42v4.48h-13.62v6.22h12.4v4.29h-12.4v11.36h-5v-26.34h18.61Z"/>
    <path d="M585.54,105.42v4.48h-14.43v6.22h13.06v4.29h-13.06v6.88h14.36v4.48h-19.35v-26.34h19.43Z"/>
    <path d="M609.26,124.77l.22,3.92c.02,1.26.3,2.28.81,3.07h-5.14c-.44-.74-.68-1.79-.7-3.15l-.11-2.89c-.07-1.6-.44-2.72-1.09-3.35s-1.7-.94-3.13-.94h-6.51v10.32h-5v-26.34h11.95c2.94,0,5.22.67,6.85,2,1.63,1.33,2.44,3.15,2.44,5.44,0,3.16-1.47,5.25-4.4,6.29,1.33.42,2.29,1.08,2.87,1.98.58.9.89,2.12.94,3.64ZM593.61,109.52v7.99h6.66c1.41,0,2.5-.35,3.27-1.05.78-.7,1.17-1.72,1.17-3.05,0-1.26-.4-2.22-1.2-2.89-.8-.67-1.94-1-3.42-1h-6.48Z"/>
    <path d="M632.65,105.42v4.48h-14.43v6.22h13.06v4.29h-13.06v6.88h14.36v4.48h-19.35v-26.34h19.43Z"/>
    <path d="M653.14,112.3v-6.88h4.81v26.34h-5.55l-7.33-11.73c-2-3.13-3.57-5.77-4.7-7.92.1,2.76.15,7.02.15,12.77v6.88h-4.81v-26.34h5.55l7.36,11.73c2.2,3.55,3.75,6.19,4.66,7.92-.1-3.68-.15-7.93-.15-12.77Z"/>
    <path d="M660.51,105.42h21.9v4.48h-8.44v21.87h-5.03v-21.87h-8.44v-4.48Z"/>
  </g>
</svg>