<?xml version="1.0" encoding="UTF-8"?>
<svg id="_Шар_1" data-name="Шар_1" xmlns="http://www.w3.org/2000/svg" version="1.1" viewBox="0 0 300.34 40.36">
  <!-- Generator: Adobe Illustrator 30.2.1, SVG Export Plug-In . SVG Version: 2.1.1 Build 1)  -->
  <rect x="45.08" y="1.55" width="1.79" height="37.25"/>
  <g>
    <path d="M6.81,23.67l-2.86-.9c-.26-.09-.54-.04-.76.12-.22.16-.35.41-.35.69v11.78c0,.37.25.71.61.81l2.88.88c.08.02.16.03.24.03.18,0,.36-.06.51-.17.22-.16.34-.41.34-.68v-11.74c-.01-.37-.25-.69-.6-.81Z"/>
    <path d="M31.76,24.51l-24.2-7.73c-.1-.03-.17-.13-.16-.23l.03-12.42c0-.27-.13-.52-.35-.69-.22-.16-.5-.21-.77-.12l-2.91,1.04c-.35.12-.58.44-.58.8v15.17c0,.65.14.72.35.81l21.79,6.98c.33.11.4.15.42.24.01.1-.02.17-.12.24l-4.14,1.93c-.16.09-.36.09-.52,0l-6.25-3.71c-.25-.14-.55-.15-.81-.02l-3.83,1.95c-.28.14-.45.41-.46.73-.01.31.14.59.4.75l10.74,6.72c.14.09.29.13.45.13s.31-.04.45-.13l10.66-6.61c.25-.15.4-.42.4-.72v-4.29c0-.37-.24-.69-.59-.8Z"/>
    <path d="M38.03,19.22l-21.55-6.6c-.27-.09-.32-.13-.33-.23,0-.1.02-.16.1-.21l4.03-2.34c.12-.07.26-.07.38,0l6.52,3.77c.25.14.55.15.81.02l3.83-1.95c.28-.14.45-.41.46-.72.01-.31-.14-.59-.4-.75l-10.94-6.77c-.28-.18-.62-.18-.9,0l-10.43,6.64c-.25.15-.4.42-.4.72v4.44c0,.37.24.7.59.8l24.04,7.71c.1.04.17.13.17.23v12.19c-.02.29.13.56.36.71.14.09.3.14.46.14.11,0,.23-.02.34-.07l2.73-1.25c.31-.13.51-.44.51-.78v-14.91c0-.37-.23-.7-.41-.81Z"/>
    <path d="M37.91,4.61l-2.77-1.19c-.26-.11-.56-.07-.79.09-.23.16-.37.42-.37.7l.04,11.7c0,.37.24.69.58.8l2.72.89c.09.03.18.04.27.04.17,0,.35-.05.49-.16.22-.16.35-.41.35-.69V5.4c.01-.34-.2-.66-.52-.79Z"/>
  </g>
  <rect x="213.48" y="1.55" width="1.79" height="37.25"/>
  <g>
    <path d="M227.42,17.99c-1.6,0-2.89-.51-3.87-1.53-.98-1.03-1.47-2.38-1.47-4.05s.49-3.02,1.47-4.05c.98-1.02,2.27-1.53,3.87-1.53s2.89.51,3.87,1.53c.97,1.01,1.46,2.36,1.46,4.05s-.49,3.04-1.46,4.05c-.98,1.02-2.27,1.53-3.87,1.53ZM224.19,12.41c0,1.17.29,2.1.89,2.78.59.68,1.37,1.02,2.34,1.02s1.77-.34,2.36-1.02c.58-.67.87-1.6.87-2.78s-.29-2.11-.87-2.78c-.59-.68-1.38-1.02-2.36-1.02s-1.75.34-2.34,1.02c-.59.68-.89,1.61-.89,2.78Z"/>
    <path d="M238.37,17.97c-1.39,0-2.48-.37-3.28-1.12-.79-.74-1.19-1.79-1.19-3.13v-6.66h2.03v6.68c0,.81.21,1.43.63,1.85.42.42,1.03.63,1.82.63s1.4-.21,1.82-.63.63-1.04.63-1.85v-6.68h2.03v6.66c0,1.36-.4,2.41-1.19,3.14-.79.74-1.89,1.1-3.29,1.1Z"/>
    <path d="M243.61,7.07h8.88v1.82h-3.42v8.87h-2.04v-8.87h-3.42v-1.82Z"/>
    <path d="M257.3,17.99c-1.45,0-2.57-.32-3.37-.98-.79-.65-1.2-1.58-1.21-2.79h2c.01.76.24,1.31.68,1.64.44.33,1.1.5,1.96.5.7,0,1.24-.13,1.61-.4.37-.26.56-.65.56-1.15,0-.42-.16-.74-.47-.96-.32-.22-.89-.41-1.72-.58l-.9-.18c-2.29-.43-3.44-1.51-3.44-3.24,0-.92.35-1.65,1.05-2.2.7-.54,1.67-.82,2.91-.82,1.41,0,2.48.3,3.2.9.73.6,1.11,1.44,1.15,2.52h-1.97c-.04-.61-.24-1.06-.61-1.35-.37-.29-.95-.44-1.75-.44-.62,0-1.1.12-1.43.34-.33.23-.5.56-.5.98s.15.76.46.99c.31.23.85.43,1.63.59l.93.18c1.25.25,2.15.62,2.71,1.12.56.5.83,1.18.83,2.05,0,1.04-.38,1.85-1.14,2.42-.76.58-1.82.86-3.18.86Z"/>
    <path d="M264.81,17.75h-2.03V7.07h2.03v10.68Z"/>
    <path d="M266.57,7.07h4.08c1.71,0,3.03.48,3.96,1.43.93.96,1.4,2.27,1.4,3.92s-.47,2.95-1.4,3.9c-.93.96-2.25,1.44-3.96,1.44h-4.08V7.07ZM268.6,16.01h2.03c1.05,0,1.86-.31,2.43-.92.57-.62.86-1.51.86-2.68s-.29-2.06-.86-2.68c-.57-.62-1.38-.92-2.43-.92h-2.03v7.2Z"/>
    <path d="M285.19,7.07v1.82h-5.85v2.52h5.3v1.74h-5.3v2.79h5.82v1.82h-7.85V7.07h7.88Z"/>
    <path d="M221.9,23.01h8.88v1.82h-3.42v8.87h-2.04v-8.87h-3.42v-1.82Z"/>
    <path d="M238.8,27.3v-4.29h2.03v10.68h-2.03v-4.56h-4.97v4.56h-2.03v-10.68h2.03v4.29h4.97Z"/>
    <path d="M250.44,23.01v1.82h-5.85v2.52h5.3v1.74h-5.3v2.79h5.82v1.82h-7.85v-10.68h7.88Z"/>
    <path d="M261.99,25.8v-2.79h1.95v10.68h-2.25l-2.97-4.76c-.81-1.27-1.45-2.34-1.91-3.21.04,1.12.06,2.85.06,5.18v2.79h-1.95v-10.68h2.25l2.99,4.76c.89,1.44,1.52,2.51,1.89,3.21-.04-1.49-.06-3.22-.06-5.18Z"/>
    <path d="M270.59,33.93c-1.6,0-2.89-.51-3.87-1.53-.98-1.03-1.47-2.38-1.47-4.05s.49-3.02,1.47-4.05c.98-1.02,2.27-1.53,3.87-1.53s2.89.51,3.87,1.53c.97,1.01,1.46,2.36,1.46,4.05s-.49,3.04-1.46,4.05c-.98,1.02-2.27,1.53-3.87,1.53ZM267.36,28.35c0,1.17.29,2.1.89,2.78.59.68,1.37,1.02,2.34,1.02s1.77-.34,2.36-1.02c.58-.67.87-1.6.87-2.78s-.29-2.11-.87-2.78c-.59-.68-1.38-1.02-2.36-1.02s-1.75.34-2.34,1.02c-.59.68-.89,1.61-.89,2.78Z"/>
    <path d="M285.6,30.86l.09,1.59c0,.51.12.93.33,1.25h-2.09c-.18-.3-.28-.73-.29-1.28l-.05-1.17c-.03-.65-.18-1.1-.44-1.36s-.69-.38-1.27-.38h-2.64v4.19h-2.03v-10.68h4.85c1.19,0,2.12.27,2.78.81s.99,1.28.99,2.21c0,1.28-.6,2.13-1.79,2.55.54.17.93.44,1.16.8s.36.86.38,1.48ZM279.25,24.67v3.24h2.7c.57,0,1.01-.14,1.33-.43s.47-.7.47-1.24c0-.51-.16-.9-.49-1.17-.32-.27-.79-.41-1.39-.41h-2.63Z"/>
    <path d="M293.85,28.1l1.79-5.09h2.94v10.68h-1.94v-3.26c0-2,.02-3.77.06-5.3-.22.75-.49,1.57-.81,2.46l-2.16,6.09h-1.67l-2.18-6.09c-.38-1.11-.65-1.92-.8-2.43.04,1.52.06,3.28.06,5.27v3.26h-1.95v-10.68h2.94l1.85,5.19c.12.35.42,1.32.92,2.9.32-1.11.64-2.11.95-3Z"/>
  </g>
  <g>
    <polygon points="77.08 18.52 77.8 18.52 77.86 6.8 82.8 6.8 82.8 33.55 77.83 33.55 74.33 21.76 73.67 21.76 73.67 33.56 68.73 33.56 68.73 6.8 73.61 6.8 77.08 18.52"/>
    <path d="M92.19,6.85c2.06,0,3.67.58,4.83,1.74,1.16,1.16,1.74,2.87,1.74,5.14v12.97c0,2.22-.58,3.91-1.75,5.07-1.17,1.16-2.77,1.74-4.81,1.74h-7.22V6.85h7.22ZM93.32,27.04v-13.73c0-.6-.14-1.06-.43-1.39-.29-.33-.67-.5-1.15-.5h-1.41v17.51h1.37c.5,0,.9-.17,1.19-.5.29-.33.43-.8.43-1.39Z"/>
    <path d="M111.87,32.49c-1.18.99-2.73,1.49-4.67,1.49s-3.49-.5-4.66-1.49c-1.18-1-1.76-2.3-1.76-3.91V11.73c0-1.61.59-2.91,1.78-3.89,1.19-.98,2.74-1.47,4.64-1.47s3.46.49,4.65,1.47c1.19.98,1.79,2.28,1.79,3.89v6.21h-4.94v-6.18c0-.4-.14-.72-.41-.96-.28-.24-.64-.36-1.08-.36s-.8.12-1.08.36c-.28.24-.41.55-.41.96v16.82c0,.4.14.72.41.96.27.24.63.36,1.08.36s.81-.12,1.08-.36c.27-.24.41-.55.41-.96v-5.56h4.94v5.56c0,1.61-.59,2.91-1.76,3.91"/>
    <path d="M155.92,6.85v4.57h-3.96v22.09h-4.94V11.42h-3.96v-4.57h12.86Z"/>
    <path d="M127.73,6.85v4.57h-3.96v22.09h-4.94V11.42h-3.96v-4.57h12.86Z"/>
    <path d="M170.01,6.78v20.72c0,1.99-.56,3.51-1.68,4.54-1.12,1.03-2.72,1.55-4.79,1.55s-3.66-.51-4.75-1.53c-1.09-1.02-1.64-2.51-1.64-4.48V6.78h5.05v21.52c0,1.17.45,1.75,1.36,1.75s1.39-.58,1.39-1.75V6.78h5.05Z"/>
    <path d="M179.4,6.85c2.06,0,3.67.58,4.83,1.74,1.16,1.16,1.74,2.87,1.74,5.14v12.97c0,2.22-.58,3.91-1.75,5.07-1.17,1.16-2.77,1.74-4.81,1.74h-7.22V6.85h7.22ZM180.54,27.04v-13.73c0-.6-.14-1.06-.43-1.39-.29-.33-.67-.5-1.15-.5h-1.41v17.51h1.37c.5,0,.9-.17,1.19-.5.29-.33.43-.8.43-1.39Z"/>
    <rect x="187.88" y="6.78" width="4.94" height="26.8"/>
    <path d="M205.83,32.49c-1.18.99-2.73,1.49-4.67,1.49s-3.49-.5-4.67-1.49c-1.18-.99-1.76-2.3-1.76-3.9V11.73c0-1.61.59-2.91,1.78-3.88,1.19-.98,2.74-1.47,4.65-1.47s3.46.49,4.64,1.47c1.19.98,1.78,2.27,1.78,3.88v16.86c0,1.61-.59,2.91-1.76,3.9M200.08,29.55c.27.24.64.35,1.08.35s.8-.12,1.08-.35c.27-.24.41-.56.41-.96V11.77c0-.4-.14-.72-.41-.96-.28-.24-.64-.36-1.08-.36s-.8.12-1.08.36c-.27.24-.41.55-.41.96v16.83c0,.4.14.72.41.96Z"/>
    <path d="M66.56,15.89v-4.59c0-2.54-2.43-4.92-6.48-4.92s-6.39,2.39-6.39,4.92v3.44c0,1.9,1.06,3.25,2.6,4.63l4.62,4.25c.48.41.71.9.71,1.49v3.41c0,.75-.61,1.35-1.36,1.35h-.28c-.75,0-1.35-.61-1.35-1.35v-4.49h-4.93v4.96c0,2.54,2.42,4.92,6.52,4.92s6.34-2.39,6.34-4.92v-3.77c0-1.9-.66-3.21-2.16-4.59l-5.06-4.78c-.48-.41-.71-.9-.71-1.49v-2.59c0-.75.61-1.35,1.35-1.35h.28c.75,0,1.36.61,1.36,1.35v4.12h4.93Z"/>
    <path d="M141.83,15.89v-4.59c0-2.54-2.43-4.92-6.48-4.92s-6.39,2.39-6.39,4.92v3.44c0,1.9,1.06,3.25,2.6,4.63l4.62,4.25c.48.41.71.9.71,1.49v3.41c0,.75-.61,1.35-1.36,1.35h-.28c-.75,0-1.35-.61-1.35-1.35v-4.49h-4.93v4.96c0,2.54,2.42,4.92,6.52,4.92s6.34-2.39,6.34-4.92v-3.77c0-1.9-.66-3.21-2.16-4.59l-5.06-4.78c-.48-.41-.71-.9-.71-1.49v-2.59c0-.75.61-1.35,1.35-1.35h.28c.75,0,1.36.61,1.36,1.35v4.12h4.93Z"/>
  </g>
</svg>